<?xml version="1.0" standalone="no"?>
<!DOCTYPE svg PUBLIC "-//W3C//DTD SVG 20010904//EN"
 "http://www.w3.org/TR/2001/REC-SVG-20010904/DTD/svg10.dtd">
<svg version="1.0" xmlns="http://www.w3.org/2000/svg"
 width="64.000000pt" height="64.000000pt" viewBox="0 0 64.000000 64.000000"
 preserveAspectRatio="xMidYMid meet">
<metadata>
Created by potrace 1.11, written by Peter Selinger 2001-2013
</metadata>
<g transform="translate(0.000000,64.000000) scale(0.100000,-0.100000)"
fill="#000000" stroke="none">
<path d="M226 614 c-101 -32 -171 -97 -206 -192 -65 -174 38 -359 228 -407 77
-20 124 -14 209 26 81 38 135 100 164 186 26 78 22 138 -14 217 -64 140 -235
217 -381 170z m34 -155 c29 -47 29 -49 9 -59 -11 -6 -58 -14 -105 -17 l-86 -6
20 40 c11 21 39 56 62 77 48 43 53 41 100 -35z m67 -125 c2 -6 -15 -19 -38
-30 -23 -10 -69 -44 -101 -74 -53 -51 -60 -54 -73 -40 -18 20 -47 100 -41 116
2 6 41 13 93 17 48 3 99 10 113 16 28 11 42 9 47 -5z m52 -143 c33 -107 30
-111 -62 -111 -52 0 -137 30 -137 49 0 27 130 130 167 131 6 0 20 -31 32 -69z"/>
</g>
</svg>
